# xmcd
#
# Track frame offsets: 
#        150
#        22569
#        42607
#        62650
#        83503
#        104202
#        126553
#        143145
#        162196
#        183533
#        203976
#        220963
#
# Disc length: 3225 seconds
#
# Revision: 1
# Processed by: cddbd v1.5.2PL0 Copyright (c) Steve Scherf et al.
# Submitted via: ExactAudioCopyFreeDBPlugin 1.0
#
DISCID=af0c970c
DTITLE=Various Artist - Merengues pa' planchar cd2
DYEAR=2004
DGENRE=Merengue
TTITLE0=Ramon Orlando - El venao
TTITLE1=Wilfrido Vargas - El jardinero
TTITLE2=Juan Luis Guerra - Estrellitas y duendes
TTITLE3=The New York Band - Nadie como tu
TTITLE4=Aramis Camilo - Que hacer para olvidarte
TTITLE5=Alex Bueno - Que cara mas bonita
TTITLE6=Familia Andre - Marcela
TTITLE7=Juan Luis Guerra - Me enamoro de ella
TTITLE8=Sergio Vargas - Si algun dia la ves
TTITLE9=Rubby Perez - Hazme olvidarla
TTITLE10=Las Chicas del Can - Besos allejeros
TTITLE11=Hermanos Rosario - Morena ven
EXTD=YEAR: 2004
EXTT0=
EXTT1=
EXTT2=
EXTT3=
EXTT4=
EXTT5=
EXTT6=
EXTT7=
EXTT8=
EXTT9=
EXTT10=
EXTT11=
PLAYORDER=
